<svg xmlns="http://www.w3.org/2000/svg" width="35" height="35" viewBox="0 0 35 35">
    <defs>
        <style>
            .cls-1{fill:#fff}
        </style>
    </defs>
    <g id="facebook">
        <path id="Trazado_5" d="M291.292 508.668q-.218.036-.437.065l.437-.065zm0 0" class="cls-1" data-name="Trazado 5" transform="translate(-270.971 -473.895)"/>
        <path id="Trazado_6" d="M299.547 507.793l-.208.036zm0 0" class="cls-1" data-name="Trazado 6" transform="translate(-278.876 -473.079)"/>
        <path id="Trazado_7" d="M278.122 510.34q-.255.029-.512.05.257-.021.512-.05zm0 0" class="cls-1" data-name="Trazado 7" transform="translate(-258.631 -475.453)"/>
        <path id="Trazado_8" d="M286.691 509.738l-.245.031zm0 0" class="cls-1" data-name="Trazado 8" transform="translate(-266.864 -474.892)"/>
        <path id="Trazado_9" d="M306.848 506.41l-.184.039zm0 0" class="cls-1" data-name="Trazado 9" transform="translate(-285.7 -471.79)"/>
        <path id="Trazado_10" d="M324.633 502.113l-.148.041zm0 0" class="cls-1" data-name="Trazado 10" transform="translate(-302.302 -467.785)"/>
        <path id="Trazado_11" d="M319.221 503.543l-.162.042zm0 0" class="cls-1" data-name="Trazado 11" transform="translate(-297.248 -469.118)"/>
        <path id="Trazado_12" d="M312.238 505.254l-.172.039zm0 0" class="cls-1" data-name="Trazado 12" transform="translate(-290.733 -470.713)"/>
        <path id="Trazado_13" d="M273.755 511.09l-.275.021zm0 0" class="cls-1" data-name="Trazado 13" transform="translate(-254.784 -476.152)"/>
        <path id="Trazado_14" d="M35 17.5A17.5 17.5 0 1 0 17.5 35h.308V21.373h-3.76v-4.382h3.76v-3.224c0-3.739 2.283-5.775 5.619-5.775a30.95 30.95 0 0 1 3.371.172v3.908H24.5c-1.815 0-2.166.863-2.166 2.128v2.791h4.336l-.57 4.382h-3.769v12.951A17.509 17.509 0 0 0 35 17.5zm0 0" class="cls-1" data-name="Trazado 14"/>
        <path id="Trazado_15" d="M265.436 511.43q-.272.018-.546.027.274-.009.546-.027zm0 0" class="cls-1" data-name="Trazado 15" transform="translate(-246.781 -476.469)"/>
        <path id="Trazado_16" d="M260.793 511.836l-.289.007zm0 0" class="cls-1" data-name="Trazado 16" transform="translate(-242.695 -476.847)"/>
    </g>
</svg>
