<svg xmlns="http://www.w3.org/2000/svg" width="35" height="34.144" viewBox="0 0 35 34.144">
    <defs>
        <style>
            .cls-1{fill:#fff}
        </style>
    </defs>
    <g id="github" transform="translate(0 -5.365)">
        <path id="Trazado_1" d="M32.652 14.081a17.424 17.424 0 0 0-6.369-6.369A17.117 17.117 0 0 0 17.5 5.365a17.119 17.119 0 0 0-8.784 2.347 17.422 17.422 0 0 0-6.369 6.369A17.118 17.118 0 0 0 0 22.864a17.007 17.007 0 0 0 3.338 10.288 17.139 17.139 0 0 0 8.624 6.323 1.02 1.02 0 0 0 .911-.159.891.891 0 0 0 .3-.683l-.011-1.23q-.011-1.162-.011-2.028l-.524.091a6.685 6.685 0 0 1-1.265.08 9.635 9.635 0 0 1-1.584-.16 3.539 3.539 0 0 1-1.53-.686 2.891 2.891 0 0 1-1-1.4l-.228-.524a5.694 5.694 0 0 0-.72-1.161 2.75 2.75 0 0 0-.991-.866l-.16-.114a1.673 1.673 0 0 1-.3-.274 1.25 1.25 0 0 1-.2-.319q-.068-.16.114-.262a1.478 1.478 0 0 1 .661-.1l.456.068a3.326 3.326 0 0 1 1.128.547 3.678 3.678 0 0 1 1.105 1.185 4.017 4.017 0 0 0 1.263 1.42 2.683 2.683 0 0 0 1.492.49 6.48 6.48 0 0 0 1.3-.114 4.532 4.532 0 0 0 1.025-.342 3.692 3.692 0 0 1 1.116-2.347 15.6 15.6 0 0 1-2.336-.41 9.3 9.3 0 0 1-2.142-.889A6.134 6.134 0 0 1 8 27.763a7.336 7.336 0 0 1-1.2-2.393 11.377 11.377 0 0 1-.467-3.418 6.646 6.646 0 0 1 1.8-4.694 6.126 6.126 0 0 1 .159-4.648 3.193 3.193 0 0 1 1.96.308 13.7 13.7 0 0 1 1.9.877q.6.364.968.615a16.456 16.456 0 0 1 8.75 0l.866-.547a12.263 12.263 0 0 1 2.1-1 2.986 2.986 0 0 1 1.846-.25 6.066 6.066 0 0 1 .182 4.648 6.647 6.647 0 0 1 1.8 4.694 11.5 11.5 0 0 1-.467 3.429 7.052 7.052 0 0 1-1.207 2.393 6.37 6.37 0 0 1-1.846 1.515 9.317 9.317 0 0 1-2.144.886 15.586 15.586 0 0 1-2.335.411 4.058 4.058 0 0 1 1.185 3.235v4.807a.908.908 0 0 0 .285.683.99.99 0 0 0 .9.159 17.137 17.137 0 0 0 8.625-6.323A17.011 17.011 0 0 0 35 22.864a17.132 17.132 0 0 0-2.348-8.783z" class="cls-1" data-name="Trazado 1"/>
    </g>
</svg>
