<svg xmlns="http://www.w3.org/2000/svg" id="instagram" width="35" height="35" viewBox="0 0 35 35">
    <defs>
        <style>
            .cls-1{fill:#fff}
        </style>
    </defs>
    <path id="Trazado_2" d="M213.735 210.368a3.368 3.368 0 1 1-3.367-3.368 3.368 3.368 0 0 1 3.367 3.368zm0 0" class="cls-1" data-name="Trazado 2" transform="translate(-192.868 -192.868)"/>
    <path id="Trazado_3" d="M151.643 137.813a3.346 3.346 0 0 0-1.917-1.917 5.59 5.59 0 0 0-1.876-.348c-1.066-.049-1.385-.059-4.083-.059s-3.017.01-4.083.059a5.593 5.593 0 0 0-1.876.348 3.347 3.347 0 0 0-1.918 1.917 5.592 5.592 0 0 0-.348 1.876c-.049 1.065-.059 1.385-.059 4.083s.01 3.017.059 4.083a5.59 5.59 0 0 0 .348 1.876 3.346 3.346 0 0 0 1.917 1.917 5.583 5.583 0 0 0 1.876.348c1.065.049 1.384.059 4.082.059s3.018-.01 4.083-.059a5.583 5.583 0 0 0 1.876-.348 3.346 3.346 0 0 0 1.917-1.917 5.6 5.6 0 0 0 .348-1.876c.049-1.066.059-1.385.059-4.083s-.01-3.017-.059-4.083a5.583 5.583 0 0 0-.346-1.876zm-7.876 11.146a5.188 5.188 0 1 1 5.188-5.188 5.188 5.188 0 0 1-5.188 5.188zm5.393-9.368a1.212 1.212 0 1 1 1.212-1.212 1.212 1.212 0 0 1-1.212 1.212zm0 0" class="cls-1" data-name="Trazado 3" transform="translate(-126.267 -126.271)"/>
    <path id="Trazado_4" d="M17.5 0A17.5 17.5 0 1 0 35 17.5 17.5 17.5 0 0 0 17.5 0zm9.988 21.643a7.373 7.373 0 0 1-.467 2.439 5.138 5.138 0 0 1-2.939 2.939 7.378 7.378 0 0 1-2.439.467c-1.072.049-1.414.061-4.143.061s-3.071-.012-4.143-.061a7.378 7.378 0 0 1-2.439-.467 5.138 5.138 0 0 1-2.939-2.939 7.371 7.371 0 0 1-.467-2.439c-.049-1.072-.061-1.414-.061-4.143s.011-3.071.061-4.143a7.373 7.373 0 0 1 .467-2.439 5.142 5.142 0 0 1 2.939-2.939 7.379 7.379 0 0 1 2.439-.467c1.072-.049 1.414-.061 4.143-.061s3.071.012 4.143.061a7.381 7.381 0 0 1 2.439.466 5.14 5.14 0 0 1 2.939 2.939 7.372 7.372 0 0 1 .467 2.439c.049 1.072.06 1.414.06 4.143s-.011 3.072-.06 4.144zm0 0" class="cls-1" data-name="Trazado 4"/>
</svg>
