 <svg
      xmlns="http://www.w3.org/2000/svg"
      width="205.023"
      height="73.842"
      viewBox="0 0 205.023 73.842"
    >
      <defs>
        <style>
          .cls-1 {
            fill: none;
          }
          .cls-2 {
            clip-path: url(#clip-path);
          }
          .cls-3 {
            fill: #ffffff;
          }
          .cls-4 {
            clip-path: url(#clip-path-2);
          }
        </style>
        <clipPath id="clip-path">
          <path
            id="Clip_2"
            d="M0 0h49.486v60.37H0z"
            class="cls-1"
            data-name="Clip 2"
            transform="translate(0 .158)"
          />
        </clipPath>
        <clipPath id="clip-path-2">
          <path
            id="Clip_17"
            d="M0 73.842h205.023V0H0z"
            class="cls-1"
            data-name="Clip 17"
            transform="translate(0 1)"
          />
        </clipPath>
      </defs>
      <g id="Group_27" data-name="Group 27" transform="translate(0 -1)">
        <g id="Group_3" data-name="Group 3" transform="translate(0 .842)">
          <path
            id="Clip_2-2"
            d="M0 0h49.486v60.37H0z"
            class="cls-1"
            data-name="Clip 2"
            transform="translate(0 .158)"
          />
          <g id="Group_3-2" class="cls-2" data-name="Group 3">
            <path
              id="Fill_1"
              d="M20.057 60.37a5.439 5.439 0 0 1-2.939-.8 7.19 7.19 0 0 1-2.828-3.807 16.116 16.116 0 0 1-.84-5.208 40.029 40.029 0 0 1 .336-5.265 38.746 38.746 0 0 1-3.107 3.31 14.878 14.878 0 0 1-3.725 2.63 6.816 6.816 0 0 1-2.044.588 5.613 5.613 0 0 1-.72.047 5.172 5.172 0 0 1-1.381-.187 3.8 3.8 0 0 1-1.735-1.008 3.838 3.838 0 0 1-.868-1.57 5.82 5.82 0 0 1-.2-1.9 8.715 8.715 0 0 1 .337-1.96 21.155 21.155 0 0 1 1.092-3.192 17.861 17.861 0 0 1 1.708-3.08 19.117 19.117 0 0 1 2.467-2.829 11.915 11.915 0 0 1 2.968-2.045 8.957 8.957 0 0 1 3.668-.84h.264a8.131 8.131 0 0 1 3.46.731c.6-2.345 1.339-4.983 2.211-7.84s1.908-5.739 3.081-8.568a65.42 65.42 0 0 1 4-8.064 28.654 28.654 0 0 1 4.988-6.387c.418-.379.918-.793 1.484-1.232A11.481 11.481 0 0 1 33.611.717a7.1 7.1 0 0 1 2.071-.671 3.607 3.607 0 0 1 2.072.28 1.725 1.725 0 0 1 1.036 1.68 9.493 9.493 0 0 1-.588 3.08 28.375 28.375 0 0 1-1.456 3.64 83.09 83.09 0 0 1-2.24 4.369 238.827 238.827 0 0 1-3.136 5.6 193.978 193.978 0 0 1-3.444 5.74 485.807 485.807 0 0 1-3.416 5.4c-1.132 1.766-2.122 3.286-3.024 4.648s-1.7 2.544-2.352 3.472a56.438 56.438 0 0 0-1.26 1.85c-.558 2.9-.973 5.624-1.232 8.091a44.969 44.969 0 0 0-.28 6.412 6.407 6.407 0 0 0 1.288 3.92 2.991 2.991 0 0 0 2.418.973 7.331 7.331 0 0 0 1.558-.188 16.773 16.773 0 0 0 4.228-1.653 54.789 54.789 0 0 0 4.955-3c1.716-1.156 3.468-2.455 5.208-3.864S39.45 47.67 41 46.3s3-2.716 4.284-4 2.349-2.405 3.163-3.332a.732.732 0 0 1 .495-.256.53.53 0 0 1 .346.144.55.55 0 0 1 0 .84c-.825.974-1.908 2.123-3.22 3.416s-2.8 2.682-4.4 4.116-3.3 2.866-5.1 4.284a86.002 86.002 0 0 1-5.348 3.921 56.877 56.877 0 0 1-5.1 3.079 16.585 16.585 0 0 1-4.4 1.679 8.454 8.454 0 0 1-1.663.179zm-7.113-25.884a4.023 4.023 0 0 0-1.342.223A9.16 9.16 0 0 0 7.934 37.2a18.475 18.475 0 0 0-2.884 4.062 21.367 21.367 0 0 0-.868 1.877 16.3 16.3 0 0 0-.782 2.406 13.016 13.016 0 0 0-.365 2.464A3.337 3.337 0 0 0 3.482 50a1.458 1.458 0 0 0 1.26.757H4.8a4.571 4.571 0 0 0 1.764-.476 12.125 12.125 0 0 0 2.072-1.344 23.6 23.6 0 0 0 2.045-1.82 38.664 38.664 0 0 0 3.444-3.948c.187-1.266.422-2.576.7-3.892.286-1.354.578-2.719.868-4.06a5.858 5.858 0 0 0-2.016-.671 4.96 4.96 0 0 0-.733-.06zM36.757 1.319a1.741 1.741 0 0 0-.543.1 6.4 6.4 0 0 0-1.54.784 12.925 12.925 0 0 0-1.456 1.147 9.892 9.892 0 0 0-.9.9 35.91 35.91 0 0 0-4.844 7 74 74 0 0 0-3.947 8.6c-1.153 2.995-2.161 6.019-3 8.988s-1.539 5.727-2.1 8.232a345.162 345.162 0 0 0 3.024-4.564 566.982 566.982 0 0 0 3.948-6.133c1.385-2.177 2.807-4.485 4.228-6.86s2.727-4.676 3.864-6.8c.817-1.561 1.543-3.021 2.156-4.34s1.108-2.5 1.484-3.555a20.356 20.356 0 0 0 .5-2.017c.111-.595.036-1.009-.224-1.232a.979.979 0 0 0-.661-.238z"
              class="cls-3"
              data-name="Fill 1"
              transform="translate(0 .158)"
            />
          </g>
        </g>
        <path
          id="Fill_4"
          d="M13.978 12.929a10.013 10.013 0 0 1-1.661-.138 5.531 5.531 0 0 1-2.184-.867A4.86 4.86 0 0 1 7.92 8.956a12.873 12.873 0 0 1-.308-3.7c-.34.415-.643.779-.952 1.148a8.42 8.42 0 0 1-.9.923 6.673 6.673 0 0 1-1.428.981 4.588 4.588 0 0 1-1.652.5c-.1.01-.209.016-.31.016a2.637 2.637 0 0 1-1.23-.3 2.077 2.077 0 0 1-.98-1.373 3.032 3.032 0 0 1-.08-1.666 5.8 5.8 0 0 1 .7-1.736A7.2 7.2 0 0 1 2.068 2.1 8.84 8.84 0 0 1 3.776.808 6.334 6.334 0 0 1 5.68.08a4.131 4.131 0 0 1 .8-.08 4.037 4.037 0 0 1 1.132.164 3.436 3.436 0 0 1 1.2.561 1.608 1.608 0 0 1 .648 1.063.657.657 0 0 1-.391.671 2.885 2.885 0 0 1 1.2.645 1.392 1.392 0 0 1 .588 1.2 13.021 13.021 0 0 0-.057 3.168 6.918 6.918 0 0 0 .616 2.212 3.156 3.156 0 0 0 1.484 1.54 4.768 4.768 0 0 0 1.988.42 8.66 8.66 0 0 0 2.156-.28 19.622 19.622 0 0 0 1.988-.616 27.229 27.229 0 0 0 3.448-1.625 41.134 41.134 0 0 0 3.192-1.959 34.282 34.282 0 0 0 2.6-1.931A16 16 0 0 0 29.9 3.748a.6.6 0 0 1 .442-.284.5.5 0 0 1 .343.171.483.483 0 0 1 .223.34.6.6 0 0 1-.223.444 19.977 19.977 0 0 1-1.708 1.6 30.167 30.167 0 0 1-2.688 2.016 58.138 58.138 0 0 1-3.332 2.072 24.177 24.177 0 0 1-3.584 1.708 22.838 22.838 0 0 1-2.268.7 13.577 13.577 0 0 1-2.405.385 8.41 8.41 0 0 1-.722.029zM7.339 1.452a1.779 1.779 0 0 0-.623.112 4.292 4.292 0 0 0-1.231.727 6.74 6.74 0 0 0-1.121 1.178 7.728 7.728 0 0 0-.84 1.4 7.984 7.984 0 0 0-.5 1.4 1.843 1.843 0 0 0-.028 1.063.374.374 0 0 0 .35.234.55.55 0 0 0 .1-.009 2.039 2.039 0 0 0 .728-.337 8.233 8.233 0 0 0 .868-.671c.405-.406.857-.915 1.344-1.512a19.97 19.97 0 0 0 1.506-2.185.579.579 0 0 1 .56-.393c-.111-.036-.167-.149-.167-.336a.728.728 0 0 0-.617-.643 1.985 1.985 0 0 0-.329-.028z"
          class="cls-3"
          data-name="Fill 4"
          transform="translate(47.725 36.217)"
        />
        <path
          id="Fill_6"
          d="M13.582 17.851a4.672 4.672 0 0 1-1.428-2.744 10.42 10.42 0 0 1-.028-3.136 28.637 28.637 0 0 1 .7-3.7q.475-1.848 1.036-3.64a9.24 9.24 0 0 0 .308-1.652 3.427 3.427 0 0 0-.084-1.371.694.694 0 0 0-.728-.5A2.862 2.862 0 0 0 11.79 2a16.275 16.275 0 0 0-2.184 2.5Q8.43 6.09 7.282 7.828T5.014 11.1A12.278 12.278 0 0 1 3 13.372a2.028 2.028 0 0 1-1.568.5 1.537 1.537 0 0 1-1.176-1.12A4.689 4.689 0 0 1 0 10.963 15.082 15.082 0 0 1 .226 8.78Q.423 7.659.7 6.623t.5-1.82a.643.643 0 0 1 .056-.28 1.02 1.02 0 0 1 .56-.615.87.87 0 0 1 .84.111 2.866 2.866 0 0 1 .952.952A1.561 1.561 0 0 1 4 6.147q-.449 1.569-.784 3.108T2.6 12.419a16.519 16.519 0 0 0 1.96-2.492q1.07-1.595 2.246-3.332t2.38-3.332a11.4 11.4 0 0 1 2.38-2.435 3.682 3.682 0 0 1 1.9-.813 3.057 3.057 0 0 1 1.708.309 3.187 3.187 0 0 1 1.26 1.231 3.854 3.854 0 0 1 .5 2.017 11.28 11.28 0 0 1-.392 2.883q-.391 1.485-.784 3a27.831 27.831 0 0 0-.616 3.08 9.192 9.192 0 0 0 .112 3.191 2.377 2.377 0 0 0 .868 1.568 2.485 2.485 0 0 0 1.456.449 4.666 4.666 0 0 0 1.68-.336q.869-.338 1.652-.673a25.76 25.76 0 0 0 3.7-2.239q1.959-1.4 3.92-3.08t3.87-3.476q1.9-1.791 3.528-3.416.5-.392.84-.056.391.393-.056.84-1.624 1.68-3.584 3.5t-3.976 3.5q-2.016 1.68-4.032 3.108a29.363 29.363 0 0 1-3.81 2.325 12.019 12.019 0 0 1-1.848.783 8.694 8.694 0 0 1-2.072.42 6.721 6.721 0 0 1-2.044-.14 3.785 3.785 0 0 1-1.764-.952"
          class="cls-3"
          data-name="Fill 6"
          transform="translate(76.418 35.443)"
        />
        <path
          id="Fill_8"
          d="M3.476 10.848a4.145 4.145 0 0 1-3.36-3.416 8.661 8.661 0 0 1 .112-3.359q.393-1.9.84-3.361a.413.413 0 0 0 .056-.168.165.165 0 0 1 .056-.112.688.688 0 0 1 .756-.42A1.629 1.629 0 0 1 2.8.489a3.375 3.375 0 0 1 .756.979 1.258 1.258 0 0 1 .2.924 25.013 25.013 0 0 0-.588 2.66 7.526 7.526 0 0 0-.028 2.66A2.045 2.045 0 0 0 4.2 9.42a3.377 3.377 0 0 0 1.9.2 8.646 8.646 0 0 0 2.184-.672q1.119-.5 1.848-.9 1.512-.839 3.052-1.876t2.94-2.1q1.4-1.063 2.548-2.017T20.556.432a.548.548 0 0 1 .84 0 .5.5 0 0 1 .112.368.506.506 0 0 1-.224.42q-.729.672-1.9 1.681T16.776 5q-1.428 1.092-3.024 2.157t-3.164 1.9a26.668 26.668 0 0 1-3.416 1.456 7.04 7.04 0 0 1-3.7.336"
          class="cls-3"
          data-name="Fill 8"
          transform="translate(111.22 39.533)"
        />
        <path
          id="Fill_10"
          d="M5.375 13.695h-.254a6.921 6.921 0 0 1-2.464-.5 4.068 4.068 0 0 1-1.9-1.6 4.926 4.926 0 0 1-.7-3.416 10.292 10.292 0 0 1 1.26-3.751A11.944 11.944 0 0 1 3.3 1.765 6.787 6.787 0 0 1 5.625.168 4.193 4.193 0 0 1 6.828 0a2.247 2.247 0 0 1 1.065.225 1.11 1.11 0 0 1 .56.7 1.821 1.821 0 0 1-.253 1.26 6.314 6.314 0 0 1-1.4 1.708 7.433 7.433 0 0 1-2.631 1.483 13.622 13.622 0 0 0-.644 1.372 8.986 8.986 0 0 0-.476 1.568 6.86 6.86 0 0 0-.14 1.624 3.166 3.166 0 0 0 .364 1.428 2.046 2.046 0 0 0 1.317 1.008 5.313 5.313 0 0 0 1.327.164c.17 0 .345-.007.521-.022a9.883 9.883 0 0 0 1.932-.365 18.821 18.821 0 0 0 1.512-.5 29.406 29.406 0 0 0 3.108-1.372 40.15 40.15 0 0 0 3.108-1.763A32.688 32.688 0 0 0 18.953 6.5 27.417 27.417 0 0 0 21.3 4.424a.839.839 0 0 1 .494-.211.483.483 0 0 1 .346.154c.223.223.2.506-.056.841a21.771 21.771 0 0 1-2.404 2.156c-.925.723-1.933 1.429-3 2.1s-2.174 1.307-3.276 1.876a26.661 26.661 0 0 1-3.248 1.429 17.032 17.032 0 0 1-2.408.671 11.6 11.6 0 0 1-2.373.255zM7.3 1.456a3.491 3.491 0 0 0-1.228 1.008 14.607 14.607 0 0 0-1.008 1.288 5.637 5.637 0 0 0 1.345-.924A2.663 2.663 0 0 0 7.3 1.456z"
          class="cls-3"
          data-name="Fill 10"
          transform="translate(130.519 35.541)"
        />
        <path
          id="Fill_12"
          d="M5.589 40.156a6.544 6.544 0 0 1-1.113-.094 4.835 4.835 0 0 1-2.8-1.569 7.146 7.146 0 0 1-1.511-3.974 16.508 16.508 0 0 1-.084-4 46.169 46.169 0 0 1 .7-4.845c.409-2.045.946-4.192 1.6-6.384s1.378-4.32 2.179-6.332a54.936 54.936 0 0 1 2.52-5.487 20.685 20.685 0 0 1 2.6-3.92c.334-.371.767-.823 1.288-1.345A9.147 9.147 0 0 1 12.737.834a6.132 6.132 0 0 1 2.016-.783 2.775 2.775 0 0 1 1.988.363 1.4 1.4 0 0 1 .7 1.092 4.682 4.682 0 0 1-.308 2.156A40.067 40.067 0 0 1 14.7 9.179c-1.06 2.025-2.228 4.088-3.472 6.132s-2.539 4.046-3.836 5.936a381.811 381.811 0 0 1-3.472 4.984 48.043 48.043 0 0 0-.952 8.512 5.329 5.329 0 0 0 .784 3.276 2.677 2.677 0 0 0 1.96 1.063c.1.007.2.011.3.011a6.285 6.285 0 0 0 2.327-.515 21.371 21.371 0 0 0 2.8-1.372 35.061 35.061 0 0 0 3.892-2.687c1.31-1.033 2.554-2.1 3.7-3.163s2.166-2.113 3.052-3.109a16.791 16.791 0 0 0 1.957-2.577c.124-.247.284-.372.473-.372a.651.651 0 0 1 .311.093.417.417 0 0 1 .252.308.726.726 0 0 1-.085.42 20.937 20.937 0 0 1-2.044 2.715c-.909 1.058-1.964 2.16-3.136 3.277s-2.453 2.217-3.808 3.276a36.862 36.862 0 0 1-4.061 2.772 16.321 16.321 0 0 1-3.667 1.624 8.364 8.364 0 0 1-2.386.373zM15.852 1.36a.88.88 0 0 0-.231.035 3.291 3.291 0 0 0-1.148.672 11.574 11.574 0 0 0-1.2 1.147 22.715 22.715 0 0 0-3 4.284 46.734 46.734 0 0 0-2.464 5.237c-.725 1.821-1.365 3.686-1.9 5.544s-1 3.6-1.372 5.152l.9-1.344 2.128-3.192a134.934 134.934 0 0 0 3.3-5.207 99.322 99.322 0 0 0 3-5.32 35.955 35.955 0 0 0 2.156-4.928 3.27 3.27 0 0 0 .28-1.765.449.449 0 0 0-.449-.315z"
          class="cls-3"
          data-name="Fill 12"
          transform="translate(151.099 14.295)"
        />
        <path
          id="Fill_14"
          d="M13.978 12.929a10.013 10.013 0 0 1-1.661-.138 5.531 5.531 0 0 1-2.184-.867A4.86 4.86 0 0 1 7.92 8.956a12.873 12.873 0 0 1-.308-3.7c-.34.415-.643.779-.952 1.148a8.42 8.42 0 0 1-.9.923 6.673 6.673 0 0 1-1.428.981 4.588 4.588 0 0 1-1.652.5c-.1.01-.209.016-.31.016a2.637 2.637 0 0 1-1.23-.3 2.077 2.077 0 0 1-.98-1.373 3.032 3.032 0 0 1-.08-1.666 5.8 5.8 0 0 1 .7-1.736A7.2 7.2 0 0 1 2.068 2.1 8.84 8.84 0 0 1 3.776.808 6.334 6.334 0 0 1 5.68.08a4.131 4.131 0 0 1 .8-.08 4.037 4.037 0 0 1 1.132.164 3.436 3.436 0 0 1 1.2.561 1.608 1.608 0 0 1 .648 1.063.657.657 0 0 1-.391.671 2.885 2.885 0 0 1 1.2.645 1.392 1.392 0 0 1 .588 1.2 13.021 13.021 0 0 0-.057 3.168 6.918 6.918 0 0 0 .616 2.212 3.156 3.156 0 0 0 1.484 1.54 4.768 4.768 0 0 0 1.988.42 8.66 8.66 0 0 0 2.156-.28 19.622 19.622 0 0 0 1.988-.616 27.229 27.229 0 0 0 3.448-1.625 41.418 41.418 0 0 0 3.193-1.959 34.9 34.9 0 0 0 2.6-1.931A16 16 0 0 0 29.9 3.748a.6.6 0 0 1 .442-.284.5.5 0 0 1 .343.171.483.483 0 0 1 .223.34.6.6 0 0 1-.223.444 19.977 19.977 0 0 1-1.708 1.6 30.035 30.035 0 0 1-2.688 2.016 57.738 57.738 0 0 1-3.332 2.072 24.126 24.126 0 0 1-3.584 1.708 22.838 22.838 0 0 1-2.268.7 13.577 13.577 0 0 1-2.405.385 8.41 8.41 0 0 1-.722.029zM7.339 1.452a1.779 1.779 0 0 0-.623.112 4.292 4.292 0 0 0-1.231.727 6.74 6.74 0 0 0-1.121 1.178 7.728 7.728 0 0 0-.84 1.4 7.984 7.984 0 0 0-.5 1.4 1.843 1.843 0 0 0-.028 1.063.374.374 0 0 0 .35.234.55.55 0 0 0 .1-.009 2.039 2.039 0 0 0 .728-.337 8.233 8.233 0 0 0 .868-.671c.405-.406.857-.915 1.344-1.512a19.97 19.97 0 0 0 1.506-2.185.579.579 0 0 1 .56-.393c-.111-.036-.167-.149-.167-.336a.728.728 0 0 0-.617-.643 1.985 1.985 0 0 0-.329-.028z"
          class="cls-3"
          data-name="Fill 14"
          transform="translate(174.115 36.217)"
        />
        <path
          id="Clip_17-2"
          d="M0 73.842h205.023V0H0z"
          class="cls-1"
          data-name="Clip 17"
          transform="translate(0 1)"
        />
        <g class="cls-4">
          <path
            id="Fill_16"
            d="M0 1.176h2.411V0H0z"
            class="cls-3"
            data-name="Fill 16"
            transform="translate(48.637 71.637)"
          />
          <path
            id="Fill_18"
            d="M3.95 1.872a1.1 1.1 0 0 0-.505-.348 1.807 1.807 0 0 0-.6-.112 1.592 1.592 0 0 0-.344.039 1.3 1.3 0 0 0-.333.122.738.738 0 0 0-.255.221.56.56 0 0 0-.1.333.552.552 0 0 0 .236.48 2.206 2.206 0 0 0 .592.285q.359.117.77.235a3.14 3.14 0 0 1 .769.333 1.818 1.818 0 0 1 .593.578 1.761 1.761 0 0 1 .235.97 2.246 2.246 0 0 1-.215 1.01 2.052 2.052 0 0 1-.583.715 2.468 2.468 0 0 1-.853.421 3.73 3.73 0 0 1-1.024.138 3.725 3.725 0 0 1-1.255-.206A3.183 3.183 0 0 1 0 6.42l1.088-1.2a1.591 1.591 0 0 0 .593.485 1.7 1.7 0 0 0 .74.172 1.638 1.638 0 0 0 .379-.041 1.2 1.2 0 0 0 .341-.136.753.753 0 0 0 .246-.226.558.558 0 0 0 .092-.323.589.589 0 0 0-.239-.5 2.238 2.238 0 0 0-.6-.309q-.363-.126-.784-.254a3.541 3.541 0 0 1-.784-.343 1.883 1.883 0 0 1-.6-.569 1.624 1.624 0 0 1-.24-.93 2.078 2.078 0 0 1 .221-.981 2.139 2.139 0 0 1 .581-.697 2.58 2.58 0 0 1 .848-.425A3.461 3.461 0 0 1 2.872 0a3.9 3.9 0 0 1 1.137.167A2.63 2.63 0 0 1 5 .726z"
            class="cls-3"
            data-name="Fill 18"
            transform="translate(58.476 67.55)"
          />
          <path
            id="Fill_19"
            d="M1.685 6.94H0L3 0h1.263L7.28 6.938H5.557l-.6-1.47H2.264l-.579 1.47zm1.9-4.921l-.841 2.156h1.7z"
            class="cls-3"
            data-name="Fill 19"
            transform="translate(70.903 67.727)"
          />
          <path
            id="Fill_20"
            d="M0 0h1.529v5.527h2.832v1.411H0z"
            class="cls-3"
            data-name="Fill 20"
            transform="translate(85.936 67.727)"
          />
          <path
            id="Fill_21"
            d="M0 0h4.714v1.411H1.529V2.7h3.009v1.416H1.529v1.411h3.362v1.411H0z"
            class="cls-3"
            data-name="Fill 21"
            transform="translate(98.196 67.727)"
          />
          <path
            id="Fill_22"
            d="M1.529 6.939H0V0h2.685A4.837 4.837 0 0 1 3.69.1a2.438 2.438 0 0 1 .833.345 1.72 1.72 0 0 1 .569.646A2.217 2.217 0 0 1 5.3 2.107a2.041 2.041 0 0 1-.38 1.249 1.729 1.729 0 0 1-1.12.652l1.766 2.929H3.734L2.283 4.165h-.754v2.773zm0-5.645v1.577h.9c.133 0 .275 0 .437-.015a1.359 1.359 0 0 0 .416-.087.722.722 0 0 0 .309-.23.7.7 0 0 0 .123-.44.741.741 0 0 0-.108-.422.736.736 0 0 0-.275-.241 1.242 1.242 0 0 0-.382-.112 3.254 3.254 0 0 0-.421-.029z"
            class="cls-3"
            data-name="Fill 22"
            transform="translate(111.308 67.727)"
          />
          <path
            id="Fill_23"
            d="M0 0h2.313l1.6 4.527h.02L5.537 0h2.3v6.938H6.311V1.617h-.02L4.469 6.938H3.3L1.548 1.617h-.019v5.321H0z"
            class="cls-3"
            data-name="Fill 23"
            transform="translate(124.656 67.727)"
          />
          <path
            id="Fill_24"
            d="M0 6.938h1.529V0H0z"
            class="cls-3"
            data-name="Fill 24"
            transform="translate(140.884 67.727)"
          />
          <path
            id="Fill_25"
            d="M0 1.176h2.411V0H0z"
            class="cls-3"
            data-name="Fill 25"
            transform="translate(150.341 71.637)"
          />
          <path
            id="Fill_26"
            d="M1.176 4.718A4.8 4.8 0 0 1 0 1.975 2.381 2.381 0 0 1 .4.664 1.55 1.55 0 0 1 1.759 0a1.362 1.362 0 0 1 .808.216 1.412 1.412 0 0 1 .544.888c.056.263.064.288.112.288s.072-.048.112-.288a1.349 1.349 0 0 1 .6-.92A1.918 1.918 0 0 1 4.75 0a1.7 1.7 0 0 1 .95.3 1.932 1.932 0 0 1 .744 1.687A3.265 3.265 0 0 1 5.957 3.7a10.861 10.861 0 0 1-1.695 2.2c-.848.9-.848.9-1.039 1.095a18.676 18.676 0 0 1-2.047-2.277"
            class="cls-3"
            data-name="Fill 26"
            transform="translate(112.652 31.875)"
          />
        </g>
      </g>
    </svg>
