<svg xmlns="http://www.w3.org/2000/svg" width="35" height="35" viewBox="0 0 35 35">
    <defs>
        <style>
            .cls-1{fill:#fff}
        </style>
    </defs>
    <path id="twitter" d="M17.5 0A17.5 17.5 0 1 0 35 17.5 17.5 17.5 0 0 0 17.5 0zm7.99 13.645q.012.258.011.519a11.351 11.351 0 0 1-11.428 11.428 11.37 11.37 0 0 1-6.157-1.8 8.17 8.17 0 0 0 .958.056 8.06 8.06 0 0 0 4.989-1.719 4.021 4.021 0 0 1-3.753-2.79 4 4 0 0 0 1.814-.069A4.018 4.018 0 0 1 8.7 15.328v-.051a3.989 3.989 0 0 0 1.819.5 4.02 4.02 0 0 1-1.244-5.362 11.4 11.4 0 0 0 8.279 4.2A4.019 4.019 0 0 1 24.4 10.95a8.057 8.057 0 0 0 2.551-.975 4.032 4.032 0 0 1-1.764 2.225 8.011 8.011 0 0 0 2.307-.633 8.163 8.163 0 0 1-2 2.08zm0 0" class="cls-1"/>
</svg>
