<svg xmlns="http://www.w3.org/2000/svg" width="1319.023" height="1291.166" viewBox="0 0 1319.023 1291.166">
    <defs>
        <style>
            .cls-1{fill:url(#linear-gradient)}.cls-2{opacity:.664}.cls-3{opacity:.2}.cls-4{opacity:.3}.cls-5{clip-path:url(#clip-path)}
        </style>
        <linearGradient id="linear-gradient" x1=".769" x2="-.044" y1=".811" y2=".319" gradientUnits="objectBoundingBox">
            <stop offset="0" stop-color="#2e6ea7"/>
            <stop offset="1" stop-color="#7abbf5"/>
        </linearGradient>
        <clipPath id="clip-path">
            <path id="Fill_1" d="M58.512 258.761C25.271 288.139-.393 331.6 0 378.494c.528 61.443 44.01 113.384 50.986 174.351C60.532 636.258.277 716.143 13 799.047c12.573 81.962 94.967 132.469 170.53 130.918s145.46-41.549 212.561-79.791 138.171-76.611 213.724-74.5c59.525 1.662 117.07 28.6 176.6 26.863 70.828-2.072 138.947-47.826 174.318-115.34s37.462-154.335 6.8-224.581c-25.629-58.706-70.914-103.634-107.112-155.172-35.956-51.188-63.066-109.157-96.624-162.274C692.1 31.715 561.675-49.771 444.615 35.222c-50.977 37.012-93.9 78.854-150.794 106.216C216.7 178.533 125.18 199.839 58.512 258.761" class="cls-1" data-name="Fill 1"/>
        </clipPath>
    </defs>
    <g id="Grupo_1" data-name="Grupo 1" transform="translate(-574.378 502.206)">
        <g id="Group" class="cls-2" transform="rotate(19 2180.397 2215.45)">
            <g id="Group_3" class="cls-3" data-name="Group 3" transform="rotate(18.01 133.715 843.22)">
                <path id="Fill_1-2" d="M59.321 239.6C25.621 266.8-.4 307.047 0 350.47c.531 56.893 44.614 104.989 51.687 161.442C61.369 589.149.28 663.119 13.175 739.885c12.747 75.894 96.28 122.661 172.889 121.225s147.472-38.473 215.5-73.883 140.082-70.938 216.681-68.984c60.348 1.539 118.689 26.485 179.038 24.874 71.808-1.919 140.869-44.285 176.729-106.8s37.98-142.908 6.889-207.952C954.918 374 909.007 332.4 872.308 284.682c-36.453-47.4-63.938-101.075-97.961-150.259C701.672 29.367 569.444-46.086 450.765 32.614c-51.682 34.271-95.2 73.016-152.88 98.351-78.192 34.349-170.974 54.078-238.564 108.635" class="cls-1" data-name="Fill 1"/>
            </g>
        </g>
        <g id="Group_4" class="cls-4" data-name="Group 4" transform="translate(672 -345)">
            <path id="Fill_1-3" d="M58.512 258.761C25.271 288.139-.393 331.6 0 378.494c.528 61.443 44.01 113.384 50.986 174.351C60.532 636.258.277 716.143 13 799.047c12.573 81.962 94.967 132.469 170.53 130.918s145.46-41.549 212.561-79.791 138.171-76.611 213.724-74.5c59.525 1.662 117.07 28.6 176.6 26.863 70.828-2.072 138.947-47.826 174.318-115.34s37.462-154.335 6.8-224.581c-25.629-58.706-70.914-103.634-107.112-155.172-35.956-51.188-63.066-109.157-96.624-162.274C692.1 31.715 561.675-49.771 444.615 35.222c-50.977 37.012-93.9 78.854-150.794 106.216C216.7 178.533 125.18 199.839 58.512 258.761" class="cls-1" data-name="Fill 1"/>
        </g>
    </g>
</svg>
